Coordinates
version=1
nRows=14
nColumns=24
inDegrees=yes

Units are S.I. units (second, meters, Newtons, ...)
Angles are in degrees.

endheader
time	pelvis_tilt	pelvis_list	pelvis_rotation	pelvis_tx	pelvis_ty	pelvis_tz	hip_flexion_r	hip_adduction_r	hip_rotation_r	knee_angle_r	ankle_angle_r	subtalar_angle_r	mtp_angle_r	hip_flexion_l	hip_adduction_l	hip_rotation_l	knee_angle_l	ankle_angle_l	subtalar_angle_l	mtp_angle_l	lumbar_extension	lumbar_bending	lumbar_rotation
      4.52000000	     -9.79170634	      5.06086788	     -4.87380295	     -0.95623083	     -0.02338011	     -0.68352834	     13.36921129	     -7.07203952	     -3.96392355	    -57.07592210	    -18.34472575	    -12.80410729	      6.16098833	     28.20643760	      5.63413242	    -16.38720419	    -24.96564703	      2.37249533	    -11.35409236	      4.07661342	      7.73564669	     -5.61500727	      2.91220235
      4.52500000	     -9.93229920	      4.97157267	     -4.72628860	     -0.95119844	     -0.02285836	     -0.68410791	     14.39165566	     -6.99390139	     -4.00789820	    -58.27892111	    -18.04943075	    -13.81558328	      5.35748435	     27.93690565	      5.69715688	    -16.19169971	    -24.82706671	      2.56758911	    -11.38935466	      3.99272641	      7.80738418	     -5.53132898	      2.60297417
      4.53000000	    -10.05740424	      4.93582075	     -4.54332307	     -0.94601127	     -0.02237983	     -0.68478112	     15.39020141	     -7.02206256	     -4.11128520	    -59.50068359	    -17.23712234	    -14.23868232	      3.46741364	     27.61696332	      5.84438277	    -15.95123770	    -24.65261313	      2.93517387	    -11.24125279	      3.73703174	      7.90038965	     -5.50278979	      2.30767759
      4.53500000	    -10.08237304	      4.87178087	     -4.40501621	     -0.94090466	     -0.02168567	     -0.68543390	     16.25820707	     -7.01608231	     -4.18650863	    -60.51725307	    -16.84664744	    -15.09682136	      3.02549788	     27.15877734	      5.96803777	    -15.70643115	    -24.39970183	      3.12785845	    -11.27228263	      3.65640799	      7.86892292	     -5.44070804	      2.06044613
      4.54000000	    -10.21789714	      4.79734922	     -4.21732416	     -0.93587604	     -0.02113519	     -0.68612942	     17.25268800	     -7.00227538	     -4.30208622	    -61.51040521	    -16.31654895	    -15.79362657	      2.25503598	     26.84124473	      6.08284487	    -15.44294074	    -24.17919730	      3.34132606	    -11.27578885	      3.48485228	      7.94092566	     -5.36586751	      1.74790952
      4.54500000	    -10.31971438	      4.72480744	     -4.04423888	     -0.93080962	     -0.02052008	     -0.68680522	     18.19646887	     -6.99030550	     -4.40817559	    -62.42785979	    -15.67368123	    -16.33940978	      1.20500282	     26.46054147	      6.20143237	    -15.17967721	    -23.91846371	      3.58497498	    -11.25001476	      3.19552975	      7.99229609	     -5.29100606	      1.45658612
      4.55000000	    -10.38398228	      4.65038428	     -3.87853903	     -0.92574137	     -0.01983820	     -0.68747261	     19.08059377	     -6.97899830	     -4.50483441	    -63.24144928	    -15.04952094	    -16.82840903	      0.41827596	     26.02139518	      6.31691375	    -14.93202857	    -23.62563630	      3.81879593	    -11.20373203	      2.92997852	      8.00711009	     -5.21312185	      1.17431243
      4.55500000	    -10.35086651	      4.58905766	     -3.75260273	     -0.92060114	     -0.01900666	     -0.68809413	     19.82378584	     -6.97764768	     -4.54187429	    -63.90654134	    -14.50476993	    -17.27367825	      0.40957086	     25.43509693	      6.43251243	    -14.74585962	    -23.25907350	      4.00895736	    -11.10451407	      2.93171653	      7.93835918	     -5.14611812	      0.95168743
      4.56000000	    -10.50562510	      4.48371625	     -3.55066039	     -0.91555256	     -0.01839502	     -0.68881411	     20.77387348	     -6.93311584	     -4.68095382	    -64.55512387	    -13.88035795	    -17.70668941	     -0.33449532	     25.08284395	      6.53202781	    -14.42660752	    -22.93889942	      4.18851371	    -11.17055239	      2.54734124	      8.05297193	     -5.02837420	      0.67546937
      4.56500000	    -10.47035098	      4.41612960	     -3.43392106	     -0.91049143	     -0.01753216	     -0.68938110	     21.50316964	     -6.90026435	     -4.68842459	    -65.06785779	    -13.36307355	    -18.07450703	     -0.31553511	     24.47855739	      6.62973316	    -14.25166732	    -22.53371908	      4.35523639	    -11.05512861	      2.54117045	      7.97230658	     -4.95446013	      0.44833823
      4.57000000	    -10.53569982	      4.32513009	     -3.22946146	     -0.90541342	     -0.01679421	     -0.69010670	     22.31141534	     -6.88259347	     -4.81397356	    -65.52336637	    -12.73081229	    -18.32419702	     -0.68305170	     23.99016900	      6.75364833	    -13.92288655	    -22.14181748	      4.49745400	    -11.11491669	      2.19012321	      8.00164017	     -4.85470574	      0.13092209
      4.57500000	    -10.50848858	      4.25264851	     -3.11217226	     -0.90032040	     -0.01593286	     -0.69064412	     23.00966538	     -6.83825871	     -4.84029100	    -65.86356725	    -12.15632620	    -18.62230229	     -0.64095797	     23.37531599	      6.83641180	    -13.78726182	    -21.70295936	      4.66313768	    -10.99317609	      2.15742518	      7.94592913	     -4.77516055	     -0.05053375
      4.58000000	    -10.48849581	      4.17048162	     -2.96407389	     -0.89522725	     -0.01507108	     -0.69122172	     23.68754353	     -6.79173251	     -4.88757967	    -66.11744538	    -11.52871931	    -18.80838519	     -0.57768854	     22.75925684	      6.92454687	    -13.59440527	    -21.24745420	      4.80351314	    -10.90204130	      2.08543687	      7.89776433	     -4.68588670	     -0.27423617
      4.58500000	    -10.45721573	      4.08165552	     -2.81428014	     -0.89013115	     -0.01418773	     -0.69179238	     24.32865027	     -6.73417934	     -4.93128409	    -66.28074829	    -10.86273196	    -18.91431907	     -0.47543414	     22.11891065	      7.00683578	    -13.38264984	    -20.77042237	      4.92571899	    -10.82557871	      1.98980674	      7.84122837	     -4.58954145	     -0.49783636
